<svg width="1024" height="1024" viewBox="0 0 1024 1024" fill="none" xmlns="http://www.w3.org/2000/svg">
<path fill-rule="evenodd" clip-rule="evenodd" d="M563.197 230.4C563.197 184.934 573.71 144.998 594.735 110.592C615.76 76.1855 643.794 49.1519 678.836 29.4911C713.878 9.83036 751.84 0 792.723 0C834.773 0 873.32 9.83036 908.362 29.4911C943.404 49.1519 971.437 76.1855 992.462 110.592C1000.92 124.43 1007.67 139.164 1012.73 154.791H935.819V85.7788C935.819 85.4498 935.463 85.2442 935.178 85.4087L790.975 168.664C790.405 168.993 790.405 169.815 790.975 170.144L935.178 253.399C935.463 253.563 935.819 253.358 935.819 253.029V184.016H1020.02C1022.67 198.779 1024 214.24 1024 230.4C1024 251.077 1021.7 270.815 1017.11 289.613H790.12C789.884 289.613 789.693 289.422 789.693 289.186V220.601C789.693 220.272 789.337 220.066 789.052 220.231L644.849 303.486C644.279 303.815 644.279 304.637 644.849 304.966L789.052 388.221C789.337 388.385 789.693 388.18 789.693 387.851V319.266C789.693 319.03 789.884 318.838 790.12 318.838H1007.82C1003.55 329.641 998.428 340.097 992.462 350.207C971.437 384.614 943.404 411.647 908.362 431.308C873.32 450.969 834.773 460.799 792.723 460.799C751.84 460.799 713.878 450.969 678.836 431.308C643.794 411.647 615.76 384.614 594.735 350.207C573.71 314.572 563.197 274.636 563.197 230.4Z" fill="#2D69E0"/>
<path fill-rule="evenodd" clip-rule="evenodd" d="M215.002 460.799H103.025C73.0541 460.799 48.0784 451.159 28.0978 431.879C9.36596 412.599 0 386.892 0 354.758V106.042C0 75.1933 9.36596 50.1289 28.0978 30.8486C48.0784 10.2829 73.0541 0 103.025 0H355.905C388.373 0 413.973 10.2829 432.705 30.8486C451.437 50.1289 460.803 75.1933 460.803 106.042V354.758C460.803 386.892 451.437 412.599 432.705 431.879C413.973 451.159 388.373 460.799 355.905 460.799H282.851H246.222L246.222 289.616C246.222 289.38 246.413 289.189 246.649 289.189H320.006C320.332 289.189 320.538 288.837 320.378 288.552L231.357 129.848C231.031 129.266 230.193 129.266 229.866 129.848L140.845 288.552C140.686 288.837 140.891 289.189 141.218 289.189H214.575C214.811 289.189 215.002 289.38 215.002 289.616L215.002 460.799Z" fill="#2D69E0"/>
<path fill-rule="evenodd" clip-rule="evenodd" d="M1023.99 793.592C1023.99 839.058 1013.48 878.994 992.455 913.4C971.43 947.806 943.396 974.84 908.354 994.501C900.52 998.896 892.54 1002.8 884.414 1006.21L884.414 776.321C884.414 775.849 884.797 775.467 885.269 775.467H953.389C953.714 775.467 953.92 775.118 953.764 774.834L870.563 623.232C870.238 622.641 869.389 622.641 869.064 623.232L785.862 774.834C785.706 775.118 785.912 775.467 786.237 775.467H854.358C854.83 775.467 855.212 775.849 855.212 776.321L855.212 1016.2C835.736 1021.39 815.488 1023.99 794.467 1023.99C775.035 1023.99 756.35 1021.89 738.414 1017.69L738.414 898.346H807.389C807.714 898.346 807.92 897.998 807.764 897.713L724.563 746.112C724.238 745.521 723.388 745.521 723.064 746.112L639.862 897.713C639.706 897.998 639.912 898.346 640.237 898.346L709.212 898.346L709.212 1008.75C698.807 1004.78 688.679 1000.03 678.828 994.501C643.786 974.84 615.752 947.806 594.727 913.4C573.702 878.994 563.189 839.058 563.189 793.592C563.189 749.355 573.702 709.419 594.727 673.784C615.752 639.378 643.786 612.344 678.828 592.684C713.87 573.023 752.417 563.192 794.467 563.192C835.35 563.192 873.312 573.023 908.354 592.684C943.396 612.344 971.43 639.378 992.455 673.784C1013.48 709.42 1023.99 749.355 1023.99 793.592Z" fill="#2D69E0"/>
<path fill-rule="evenodd" clip-rule="evenodd" d="M291.839 571.738C291.839 567.017 295.666 563.19 300.387 563.19H452.253C456.973 563.19 460.8 567.017 460.8 571.738V685.153H460.803V933.825C460.803 960.662 451.437 982.669 432.705 999.844C413.973 1015.95 388.997 1024 357.778 1024H279.104H231.256L231.256 848.647H460.796V846.937H231.256V685.153H291.839V571.738ZM0 585.275C0 580.555 3.82691 576.728 8.54765 576.728H160.413C165.134 576.728 168.961 580.555 168.961 585.275V685.153H229.546L229.546 1024H103.025C73.0542 1024 48.0784 1015.95 28.0978 999.844C9.36596 982.669 0 960.662 0 933.825V812.129V685.153V585.275Z" fill="#2D69E0"/>
</svg>
